<?xml version="1.0" encoding="utf-8"?>
<!-- Uploaded to: SVG Repo, www.svgrepo.com, Generator: SVG Repo Mixer Tools -->
<svg width="800px" height="800px" viewBox="-8.45 0 360.445 360.445" xmlns="http://www.w3.org/2000/svg"><defs><style>.a{fill:#ffffff;}.b{fill:#211715;}.c{fill:#a0a0a0;}.d{fill:#908b8a;}.e{fill:#5394cf;}</style></defs><path class="a" d="M341.131,357.83c-4.889-67.555-12.364-126.424-18.546-147.029a24.1,24.1,0,0,0-7.926-12.148,64.005,64.005,0,0,0-10.971-6.569c-11.13-5.377-28.954-12.524-40.362-17.283l-10.989-3.576c-1.577,8.735-4.209,19.963-7.085,27.8-2.388,6.506-10.222,28.667-15.555,41.333a283.549,283.549,0,0,1-13.561,27.827l-.217-.493c-12.9-29.325-28.444-59.84-32.547-96.561-5.184,1.793-11.9,4.114-11.9,4.114-11.4,4.76-29.96,12.15-41.09,17.53a33.478,33.478,0,0,0-9.35,6.31,30.131,30.131,0,0,0-7.04,10.16c-7.321,19.123-8.63,29.223-15.353,47.448-2.159-7.119-4.224-14.161-6.481-21.775-11.536,4.687-29.8,10.953-40.993,12.24,3.727,18.036,7.339,37.4,13.3,55.68C68.6,315.539,74.8,327.61,87.323,332.27a32.994,32.994,0,0,0,28.9-2.4c7.449-4.386,16.119-13.907,21.535-19.507,0,0,1.029-1.07,2.364-2.455.494,7.127.362,14.057.362,21.625,0,9.95-.59,17.3-.6,28.59Z"/><path class="a" d="M270.743,87.657A7.952,7.952,0,0,1,277.1,85.8a7.508,7.508,0,0,1,5.4,3.588,10.609,10.609,0,0,1,1.111,4.269,31.805,31.805,0,0,1-3.242,16.857,20.213,20.213,0,0,1-5.227,6.86c-2.136,1.7-4.282,2.517-7.825.726a47.677,47.677,0,0,1-2.07,7.472c-1.678,4.482-10.459,19.15-21.872,26.14.014,3.6.207,7.353,1.408,10.327,2.58,6.39,16.52,14.43,17.48,14.85,0,0-7.9,29.916-45.233,29.916s-42.247-29.916-42.247-29.916c.96-.42,12.71-7.34,15.3-13.73,1.215-3,1.4-6.769,1.41-10.376a44.764,44.764,0,0,1-14.316-11.6,53.854,53.854,0,0,1-10.858-21.89c-3.286,1.312-5.738-.384-7.659-1.916a20.213,20.213,0,0,1-5.227-6.86,31.805,31.805,0,0,1-3.242-16.857,10.609,10.609,0,0,1,1.111-4.269,7.508,7.508,0,0,1,5.4-3.588,7.952,7.952,0,0,1,6.361,1.861S159.474,35.69,213.03,35.69C274.585,35.69,270.743,87.657,270.743,87.657Z"/><path class="b" d="M176,178.958a28.885,28.885,0,0,0,3.958-2.421,58.666,58.666,0,0,0,6.77-5.238,21.916,21.916,0,0,0,5.235-6.48c1.766-3.73,1.916-8.029,1.935-12.084.015-3.089-4.785-3.093-4.8,0a44.226,44.226,0,0,1-.29,5.754,15.246,15.246,0,0,1-1.217,4.36,20.139,20.139,0,0,1-4.721,5.471,51.629,51.629,0,0,1-5.752,4.351,26.843,26.843,0,0,1-3.541,2.142,2.419,2.419,0,0,0-.861,3.284,2.458,2.458,0,0,0,3.284.861Z"/><path class="b" d="M240.983,152.705c.074,4.05.3,8.588,2.553,12.1a28.387,28.387,0,0,0,6.077,6.416,78.14,78.14,0,0,0,7.327,5.294,33.865,33.865,0,0,0,4.112,2.441,2.472,2.472,0,0,0,3.284-.861,2.42,2.42,0,0,0-.861-3.284,31.694,31.694,0,0,1-3.712-2.185,70.892,70.892,0,0,1-6.292-4.423,42.879,42.879,0,0,1-3.306-2.91,20.687,20.687,0,0,1-2.219-2.514,11.245,11.245,0,0,1-.922-1.572c.261.55-.189-.519-.2-.563-.175-.521-.319-1.051-.442-1.587a30.91,30.91,0,0,1-.595-6.354c-.056-3.085-4.856-3.095-4.8,0Z"/><path class="a" d="M250.235,164.586a24.517,24.517,0,0,0-5.076-6.39c-3.86,5.19-12.675,11.671-23.24,15.921a6,6,0,0,0-2.054,1.162c-.253.471.239.885.471,1.255a16.575,16.575,0,0,0,1.658,1.741c-3.321,0-5.789.013-8.911.015a16.745,16.745,0,0,0,1.675-1.756c.231-.37.723-.784.47-1.255a5.99,5.99,0,0,0-2.054-1.162c-10.564-4.25-19.379-10.731-23.24-15.921-3.482,3.2-4.792,5.74-6.884,9.776,3.556,38.346,19.774,69.9,33.087,100.213a283.941,283.941,0,0,0,13.56-27.829c5.333-12.666,13.167-34.827,15.555-41.333,3.1-8.451,5.92-20.847,7.436-29.809C251.759,167.435,251.008,165.941,250.235,164.586Z"/><path class="a" d="M174.141,280.912l-1.428-2.767c-4.1-6.828-6.424-18.651-7.283-24.789-1.046-7.472,1.7-23.58,3.186-29.643,1.366,2.428,7.375,16.331,9.047,20.255,3.176,7.457,8.626,17.6,6.315,25.832-1.745,6.218-4.566,7.02-8.079,8.876-3.749,1.98-7.209.86-10.729,2.592-2.606,1.283-3.109,3.744-2.772,6.165.44,3.157,3.137,6.592,6.677,5.786,1.613-.368,2.909-1.525,4.349-2.34,1.911-1.082,4.278-2.02,6.268-2.948,4.552-2.124,8.826-4.431,11.607-8.724,3-4.627,4.774-9.845,4.173-15.325-2.049-18.662-14.782-34.452-20.483-51.207-.5-8.563,2.687-28.5,7.485-38.763,0,0,.437-.5,1.078-1.251q-.514-4.278-.814-8.67c-6.054,2.72-13.532,11.888-15.791,24.787-1.247,7.121-2.911,14.472-4.4,22.911-5.585,13.9-7.62,32.834-7,42.069.6,8.978,3.086,20.4,7.8,27.758l1.347,3.062Z"/><path class="a" d="M273.453,247.717c.589-5.152-1.037-10.831-5.675-13.261,4.313-23.468,2.831-34.992-.081-48.211-1.714-7.779-7.246-18.2-14.226-22.209-.3,2.327-.756,5.182-1.33,8.32,1.611,1.611,4.056,7.222,4.778,9.889,5.068,18.79,5.584,30.782,2.473,51.1-5.573,1.228-7.9,6.555-8.392,8.618-1.317,5.544-.873,12.741,4.13,16.317a9.616,9.616,0,0,0,3.824,1.614c7.895,1.5,13.041-4.277,14.3-10.874C273.337,248.592,273.4,248.156,273.453,247.717Z"/><path class="c" d="M188.082,291.384a4.887,4.887,0,0,0-2.585-4l-2.411-1.14c-1.1.593-2.238,1.144-3.394,1.684-1.465.684-3.136,1.373-4.678,2.12a18.942,18.942,0,0,0,2.253,4.05,5.771,5.771,0,0,0,3.518,2.207,6.68,6.68,0,0,0,2.651-.247c1.8-.474,3.649-1.418,4.425-3.114A3.152,3.152,0,0,0,188.082,291.384Z"/><path class="c" d="M162.314,286.535a5.143,5.143,0,0,1,2.856-5.267,17.3,17.3,0,0,1,6.042-1.286,26.246,26.246,0,0,1,2.505,10.741c-.1.048-.2.1-.293.156-1.44.815-2.736,1.972-4.349,2.34-3.54.806-6.237-2.629-6.677-5.786C162.356,287.133,162.328,286.833,162.314,286.535Z"/><path class="d" d="M175.093,17.182c4.424-5.57,11.826-9.937,19.27-11.826A78.063,78.063,0,0,1,220.356,2.54c18.077,1.563,35.765,10.028,47.126,24.176,12.862,16.019,14.984,41.251,8.611,59.006a7.874,7.874,0,0,0-5.312,1.9c-1.083-6.528-4.252-16.018-6.571-22.342a5.808,5.808,0,0,0-1.769-2.829,8.466,8.466,0,0,0-3.694-1.269c-8.294-1.4-13.031-2.411-21.5-2.827-9.113-.448-15.694,3.846-24.444,1.778-5.141-1.215-16.636-7.045-20.556-9.951-1.055-.771-2-1.518-2.881-2.1-1.05-.7-2.433-1.374-3.545-.782a3.9,3.9,0,0,0-.618.437c-.59.48-1.458,1.17-2.007,1.664-12.253,10.4-19.175,24.96-18.745,39.471l0,.047-1.4-1.263A7.952,7.952,0,0,0,156.7,85.8a7.666,7.666,0,0,0-2.365.762c-4.222-13.012-3.573-31.866-.636-41.757l.789-2.661c3.051-9.079,8.064-15.765,13.879-19.058Z"/><path class="e" d="M204.624,235.958l.008-.128c2.1-17.254,5-38.413,5-39.017a13.253,13.253,0,0,0-.518-3.175c-.121-.483-.241-.949-.345-1.432-.641-2.746-1.05-4.654-1.632-7.673.827-.862,1.645-1.728,2.433-2.592,1.469-1.613,2.646-2.8,3.511-3.648,3.121,0,5.588-.013,8.906-.018.866.852,2.049,2.04,3.531,3.666,1.019,1.118,2.089,2.239,3.165,3.351l-.521,2.083c-.327,1.311-.69,2.674-1.173,4.158a19.339,19.339,0,0,0-1.242,5.625c-.017.984,2.795,19.549,5.452,37.32,0,0,.087.623.231,1.646-.6,1.5-1.182,2.915-1.736,4.232a283.941,283.941,0,0,1-13.56,27.829c-3.84-8.743-7.922-17.589-11.871-26.671C204.436,238.87,204.588,236.52,204.624,235.958Z"/><path class="a" d="M235.854,192.941a103.443,103.443,0,0,0,16-25.333c-1.984-3.827-3.319-6.308-6.7-9.412-3.86,5.19-12.675,11.671-23.24,15.921a6,6,0,0,0-2.054,1.162c-.253.471.239.885.471,1.255.363.582,2.148,2.074,5.185,5.407C228.967,185.723,233,189.534,235.854,192.941Z"/><path class="a" d="M199.239,192.941a103.473,103.473,0,0,1-16-25.333c1.985-3.827,3.319-6.308,6.695-9.412,3.861,5.19,12.676,11.671,23.24,15.921a5.99,5.99,0,0,1,2.054,1.162c.253.471-.239.885-.47,1.255-.364.582-2.148,2.074-5.185,5.407C206.127,185.723,202.091,189.534,199.239,192.941Z"/><path class="b" d="M100.954,257.321c5.3-14.408,8.726-29.4,14-43.819a40.271,40.271,0,0,1,2.461-5.906,28.084,28.084,0,0,1,3.529-4.921,31.4,31.4,0,0,1,9.329-7.171c6.26-3.23,12.841-5.909,19.331-8.635,7.486-3.144,15.015-6.185,22.508-9.312a2.48,2.48,0,0,0,1.677-2.952,2.416,2.416,0,0,0-2.953-1.677c-13.636,5.691-27.47,11-40.814,17.365-7.521,3.585-14.374,9.148-17.783,16.961-3.312,7.592-5.636,15.71-7.949,23.65-2.46,8.448-4.921,16.878-7.96,25.141A2.422,2.422,0,0,0,98,259a2.451,2.451,0,0,0,2.953-1.676Z"/><path class="b" d="M262.688,177.115c13.36,5.571,26.928,10.784,39.951,17.12,6.269,3.05,12.547,6.551,15.9,12.919,2.038,3.869,2.921,8.427,3.866,12.671,2.369,10.642,4.035,21.445,5.573,32.234,2.124,14.891,3.859,29.838,5.417,44.8q2.8,26.863,4.8,53.8.272,3.584.531,7.168a2.459,2.459,0,0,0,2.4,2.4,2.419,2.419,0,0,0,2.4-2.4q-2.013-27.779-4.774-55.5c-1.59-15.769-3.385-31.521-5.544-47.223-1.575-11.464-3.291-22.937-5.681-34.263a104.583,104.583,0,0,0-2.9-11.536,27.857,27.857,0,0,0-5.764-10,35.609,35.609,0,0,0-8.675-6.5c-6.351-3.67-13.212-6.5-19.946-9.378-7.214-3.086-14.475-6.064-21.727-9.06q-2.278-.941-4.554-1.889a2.414,2.414,0,0,0-2.952,1.677,2.462,2.462,0,0,0,1.676,2.952Z"/><path class="b" d="M296.148,358.127c-.015-9.172-.559-18.332-.6-27.5-.043-10.076-.313-20.261,1.141-30.26.705-4.847,1.677-9.659,2.5-14.488q1.233-7.27,2.375-14.557,2.325-14.822,4.318-29.693,2.1-15.643,3.83-31.336a2.416,2.416,0,0,0-2.4-2.4,2.455,2.455,0,0,0-2.4,2.4q-3.105,28.6-7.554,57.037c-1.492,9.645-3.148,19.257-4.83,28.87-1.777,10.156-1.811,20.4-1.783,30.679.029,10.422.587,20.83.605,31.251,0,3.088,4.805,3.094,4.8,0Z"/><path class="b" d="M124.2,213.021q3.125,28.446,7.606,56.725c1.514,9.666,3.305,19.283,4.878,28.938,1.583,9.717,1.422,19.583,1.4,29.395-.018,10.021-.585,20.028-.6,30.048,0,3.089,4.795,3.093,4.8,0,.014-8.816.517-17.62.59-26.435.082-9.776.286-19.637-.875-29.362-.592-4.952-1.571-9.847-2.421-14.759q-1.252-7.229-2.413-14.473-2.345-14.613-4.355-29.276-2.109-15.373-3.813-30.8a2.472,2.472,0,0,0-2.4-2.4,2.415,2.415,0,0,0-2.4,2.4Z"/><path class="b" d="M156.148,84.275c-2.512-8.98-2.877-18.6-2.071-27.854.654-7.5,2.48-15.051,6.307-21.6a26.043,26.043,0,0,1,9.192-9.671c2.675-1.542.261-5.692-2.423-4.144-8.037,4.634-12.882,13.421-15.447,22.063a78.224,78.224,0,0,0-2.689,25.519,75.028,75.028,0,0,0,2.5,16.959c.831,2.97,5.464,1.708,4.629-1.276Z"/><path class="b" d="M176.79,18.879C183.737,10.269,194.721,7,205.269,5.5a67.562,67.562,0,0,1,31.8,3.043,63.838,63.838,0,0,1,26.012,16.74,53.431,53.431,0,0,1,12.834,26.2,64.592,64.592,0,0,1-1.657,32.188c-.952,2.946,3.681,4.208,4.629,1.276a69.4,69.4,0,0,0,2.288-31.033c-1.5-10.511-5.417-20.752-12.123-29.051C254.78,7.2,230.81-1.886,208.407.328,195.708,1.583,181.775,5.1,173.4,15.485a2.473,2.473,0,0,0,0,3.394,2.417,2.417,0,0,0,3.394,0Z"/><path class="b" d="M166.856,88.873a46.413,46.413,0,0,1,9-28.055,51.6,51.6,0,0,1,10.781-11.165c.456-.342,0-.177.426-.107a4.317,4.317,0,0,1,1.43.835c1.064.728,2.06,1.55,3.121,2.283,1.446,1,2.977,1.88,4.513,2.731a102.319,102.319,0,0,0,11.92,5.679,26.443,26.443,0,0,0,13.219,1.787c5.282-.654,10.39-2.321,15.763-2.114a120.955,120.955,0,0,1,15.817,1.845q2.394.411,4.789.825c1.133.194,2.906.263,3.679,1.269a11.843,11.843,0,0,1,1.288,3.185q.7,1.964,1.367,3.94a109.465,109.465,0,0,1,4.5,16.452,2.421,2.421,0,0,0,2.952,1.677,2.457,2.457,0,0,0,1.677-2.953,106.868,106.868,0,0,0-4.248-15.7c-.779-2.34-1.563-4.689-2.453-6.988a8.3,8.3,0,0,0-2.259-3.546,9.244,9.244,0,0,0-4.353-1.816c-5.546-1.042-11.152-2.006-16.77-2.563A54.761,54.761,0,0,0,233.787,56a67.95,67.95,0,0,0-8.576,1.349c-4.767.956-9.349,1.416-14.027-.208a80.582,80.582,0,0,1-11.791-5.429c-1.731-.937-3.453-1.908-5.086-3.008-2.193-1.477-4.288-3.725-7.055-3.984-2.792-.261-5.088,2.359-7.007,4.085a56.624,56.624,0,0,0-5.956,6.228c-7.794,9.52-12.546,21.441-12.233,33.84.078,3.084,4.878,3.095,4.8,0Z"/><path class="b" d="M210.368,199.067c4.969,0,9.938-.11,14.908-.112a2.4,2.4,0,0,0,0-4.8c-4.97,0-9.939.11-14.908.112a2.4,2.4,0,0,0,0,4.8Z"/><path class="b" d="M205.06,186.374q.644,3.247,1.4,6.47a14.611,14.611,0,0,1,.758,4.184c-.1,1.483-.37,2.972-.563,4.445-.886,6.783-1.786,13.564-2.659,20.349q-.9,7-1.762,14.008a2.413,2.413,0,0,0,2.4,2.4,2.459,2.459,0,0,0,2.4-2.4c.991-8.115,2.041-16.223,3.1-24.329.625-4.764,1.471-9.554,1.866-14.344a13.876,13.876,0,0,0-.631-4.4c-.628-2.538-1.174-5.1-1.682-7.663a2.423,2.423,0,0,0-2.952-1.676,2.448,2.448,0,0,0-1.677,2.952Z"/><path class="b" d="M221.706,175.875l-8.841.019a2.4,2.4,0,0,0,0,4.8l8.841-.019a2.4,2.4,0,0,0,0-4.8Z"/><path class="b" d="M233.516,233.84q-1.737-11.624-3.476-23.248-.641-4.32-1.266-8.644-.22-1.541-.433-3.083c-.025-.185.057.441-.006-.052-.019-.149-.039-.3-.058-.446-.033-.261-.072-.523-.094-.785a9.4,9.4,0,0,1,.459-3.278c.583-2.108,1.3-4.167,1.838-6.291.754-3-3.874-4.274-4.629-1.276-.852,3.385-2.635,6.991-2.5,10.536.058,1.481.371,2.979.577,4.444.9,6.405,1.873,12.8,2.83,19.2q1.064,7.1,2.127,14.2a2.416,2.416,0,0,0,2.952,1.676,2.46,2.46,0,0,0,1.676-2.952Z"/><path class="b" d="M242,263.892c-5.3,5.1-10.675,10.118-16.205,14.965a2.4,2.4,0,0,0,3.394,3.395c5.53-4.848,10.908-9.868,16.2-14.966A2.4,2.4,0,1,0,242,263.892Z"/><path class="b" d="M219.3,302.139c.267.24.482.531.742.773q-.366-.481-.15-.185c.046.066.091.134.135.2.074.116.143.236.208.358.1.192.207.609-.025-.107.046.141.106.276.149.418a5.423,5.423,0,0,1,.184.834l-.086-.638a6.08,6.08,0,0,1,0,1.513l.085-.638a6.623,6.623,0,0,1-.172.838q-.05.175-.108.348c-.038.113-.232.587-.035.123s0-.018-.054.091-.109.208-.169.309-.116.185-.176.277c-.248.383.42-.482.141-.178-.1.107-.5.649-.644.625.016,0,.556-.389.188-.155-.059.037-.117.078-.177.115-.135.084-.274.163-.416.235-.064.032-.128.061-.192.092-.338.167.5-.184.228-.1-.136.044-.269.1-.406.139a6.952,6.952,0,0,1-1,.219l.638-.086a7.121,7.121,0,0,1-1.816.006l.638.086a8.4,8.4,0,0,1-1.4-.358c.723.231.394.171.209.08-.118-.058-.233-.12-.345-.187-.083-.05-.162-.105-.244-.158-.329-.212.513.441.13.1a8.53,8.53,0,0,1-.625-.622c-.282-.311.344.508-.005-.014-.067-.1-.13-.2-.189-.307s-.107-.208-.161-.311c-.188-.363.22.622.034.045a4.816,4.816,0,0,1-.17-.75l.085.638a5.3,5.3,0,0,1,0-1.3l-.085.638a5.934,5.934,0,0,1,.2-.9c.043-.141.093-.279.142-.417.163-.457-.242.5-.024.063a9.307,9.307,0,0,1,.461-.829q.12-.189.251-.37a1.034,1.034,0,0,1,.133-.18c-.073.063-.394.477-.133.181.09-.1.178-.2.275-.3s.464-.391.1-.113.041-.019.139-.081q.2-.127.416-.235c.025-.012.173-.1.195-.093,0,0-.593.227-.273.117.139-.048.275-.1.416-.142a6.341,6.341,0,0,1,.983-.208l-.638.085a6.45,6.45,0,0,1,1.577,0l-.638-.086a6.2,6.2,0,0,1,.662.132c.09.025.18.051.269.08s.5.195.08.015c-.4-.171-.073-.028.019.018s.2.1.294.161.187.122.281.183c.337.221-.46-.377-.132-.095a2.559,2.559,0,0,0,1.7.7,2.4,2.4,0,0,0,1.7-4.1,7.631,7.631,0,0,0-4.9-1.866,8.107,8.107,0,0,0-4.511,1.236,8.606,8.606,0,0,0-3.607,8.656,7.446,7.446,0,0,0,3.058,4.352,8.368,8.368,0,0,0,11.584-2.63,8.382,8.382,0,0,0,.967-4.491,7.947,7.947,0,0,0-2.587-5.257,2.4,2.4,0,0,0-3.394,3.394Z"/><path class="b" d="M259.592,257.581c-5.655-1.188-7.153-6.912-6.76-12a17.466,17.466,0,0,1,.536-3.195q.086-.312.191-.618c.048-.142.1-.28.153-.42.128-.361-.219.428.082-.191a10.135,10.135,0,0,1,2.5-3.566,7.328,7.328,0,0,1,1.886-1.3,8.635,8.635,0,0,1,2.757-.766,10.036,10.036,0,0,1,6.805,1.732c3.491,2.724,3.99,8.088,2.987,12.08-1.3,5.193-5.516,9.234-11.138,8.246a2.469,2.469,0,0,0-2.953,1.677,2.421,2.421,0,0,0,1.677,2.952,14.223,14.223,0,0,0,9.984-1.555,15.516,15.516,0,0,0,6.117-7.311c2.465-5.809,2.151-13.21-1.994-18.189-3.99-4.794-12.057-5.867-17.322-2.642a15.11,15.11,0,0,0-6.765,10.588,21.111,21.111,0,0,0,.85,11.129,12.693,12.693,0,0,0,9.13,7.98C261.329,262.843,262.618,258.217,259.592,257.581Z"/><path class="b" d="M260.99,250.714a2.952,2.952,0,0,1-1.171-.494c-1.531-1.095-1.667-3.3-1.264-5a3.482,3.482,0,0,1,4.516-2.543c2.037.558,2.655,2.824,2.3,4.7C264.982,249.4,263.406,251.172,260.99,250.714Z"/><path class="b" d="M182.836,161.375c-6.607,2.511-11.413,8.836-14.39,15.008a50.81,50.81,0,0,0-4.071,13.2c-.889,4.9-1.916,9.763-2.869,14.645-.492,2.523-.7,5.313-1.62,7.707-.772,2-1.452,4.042-2.06,6.1a112.829,112.829,0,0,0-3.022,13.283c-1.254,7.464-2.176,15.224-1.631,22.8.7,9.74,2.822,20.248,8.1,28.609,1.646,2.605,5.8.2,4.145-2.423-4.385-6.94-6.354-15.519-7.216-23.6a84.952,84.952,0,0,1,.745-21.02,121.515,121.515,0,0,1,2.5-12.709c.524-2.058,1.109-4.1,1.771-6.12a49.03,49.03,0,0,0,1.99-6.459c.887-4.855,1.89-9.688,2.843-14.53.879-4.469,1.488-9.007,3-13.322a35,35,0,0,1,6.031-10.874,26.871,26.871,0,0,1,3.734-3.707,18.729,18.729,0,0,1,1.747-1.178c.3-.178.61-.347.924-.5.134-.067.269-.131.405-.193.471-.216-.292.108.223-.087a2.469,2.469,0,0,0,1.677-2.952,2.419,2.419,0,0,0-2.953-1.677Z"/><path class="b" d="M174.785,276.933c-3.889-6.58-5.509-14.637-6.721-22.1q-.088-.549-.172-1.1c-.012-.077-.15-1.055-.093-.606-.095-.756-.147-1.518-.175-2.28-.062-1.663-.012-3.329.084-4.989.216-3.732.667-7.45,1.24-11.142.538-3.473,1.151-6.948,1.982-10.365l-4.386.573c2.591,4.67,4.523,9.795,6.647,14.687,2.682,6.177,5.811,12.318,7.735,18.777,1.109,3.724,1.73,7.621.551,11.4-.989,3.173-2.48,4.6-5.245,6.021a15.039,15.039,0,0,1-5.168,1.786,21.612,21.612,0,0,0-6.9,1.5c-3.914,1.86-5.046,6.493-3.73,10.392s4.984,7.041,9.282,6.039c2.237-.521,4.025-2.161,6.04-3.176,2.039-1.027,4.166-1.87,6.223-2.861,3.747-1.805,7.465-4,10.094-7.3a27.3,27.3,0,0,0,5.611-12.573c.7-4.571-.1-9.2-1.229-13.647A82.155,82.155,0,0,0,192,243.438c-3.465-7.954-7.821-15.476-11.443-23.356-.854-1.858-1.662-3.736-2.388-5.649a17.3,17.3,0,0,1-.8-2.181,11.338,11.338,0,0,1-.026-1.985,82,82,0,0,1,.751-9.559,108.345,108.345,0,0,1,4.819-21.447,43.849,43.849,0,0,1,1.636-4.138,2.471,2.471,0,0,0-.861-3.284,2.421,2.421,0,0,0-3.284.861c-2.98,6.438-4.665,13.463-5.938,20.414-.659,3.6-1.186,7.223-1.544,10.862a52.551,52.551,0,0,0-.348,8.383c.122,1.94,1.175,3.951,1.915,5.736q1.268,3.058,2.69,6.051c1.811,3.813,3.769,7.553,5.683,11.315,3.812,7.49,7.5,15.135,9.344,23.383.926,4.138,1.414,8.246.216,12.382a20.686,20.686,0,0,1-6.587,10.43c-3.167,2.531-7.061,4.052-10.718,5.711-.983.445-1.965.9-2.9,1.44-.959.548-1.833,1.263-2.825,1.751a2.619,2.619,0,0,1-3.455-.805,5.653,5.653,0,0,1-1.22-3.963c.124-1.626,1.188-2.39,2.716-2.826,2-.57,4.109-.513,6.136-.933A21.229,21.229,0,0,0,179,279.78a13.086,13.086,0,0,0,6.261-6.465,21.062,21.062,0,0,0,1.225-12.34c-1.267-7.205-4.88-13.889-7.749-20.554-2.275-5.283-4.539-10.58-6.988-15.785-.337-.718-.673-1.44-1.058-2.134a2.426,2.426,0,0,0-4.386.573A132.454,132.454,0,0,0,163,244.537a46.046,46.046,0,0,0,.229,10.21,106.515,106.515,0,0,0,2.319,11.383,51.715,51.715,0,0,0,5.1,13.226c1.571,2.657,5.722.245,4.145-2.423Z"/><path class="b" d="M156.2,256.6q4.457-.267,8.893-.774a2.606,2.606,0,0,0,1.7-.7,2.434,2.434,0,0,0,.7-1.7c-.052-1.178-1.064-2.552-2.4-2.4q-4.435.506-8.893.774a2.4,2.4,0,0,0,0,4.8Z"/><path class="b" d="M182.327,252.764c.123-.054.247-.106.371-.159l-.573.242a42.289,42.289,0,0,1,6.784-2.191,2.42,2.42,0,0,0,1.677-2.952,2.452,2.452,0,0,0-2.953-1.676,45.487,45.487,0,0,0-7.729,2.591,2.4,2.4,0,0,0-1.1,1.434,2.454,2.454,0,0,0,.242,1.85,2.425,2.425,0,0,0,1.434,1.1l.638.085a2.391,2.391,0,0,0,1.212-.327Z"/><path class="b" d="M270.2,234.525c2-11.124,3.358-22.483,2.309-33.787-.872-9.386-2.617-19.08-7.355-27.341-3.007-5.242-7.118-10.183-12.815-12.54a2.415,2.415,0,0,0-2.953,1.676,2.461,2.461,0,0,0,1.677,2.952c4.15,1.717,7.317,5.916,9.573,9.7a42.984,42.984,0,0,1,5.082,13.229,96.771,96.771,0,0,1,2.257,25.067,150.582,150.582,0,0,1-2.4,19.771,2.468,2.468,0,0,0,1.677,2.952,2.421,2.421,0,0,0,2.952-1.676Z"/><path class="b" d="M169.4,281.739a26.917,26.917,0,0,1,1.774,6.557l-.086-.638q.135,1.021.2,2.05a2.4,2.4,0,1,0,4.8,0,28.647,28.647,0,0,0-2.056-9.245,2.638,2.638,0,0,0-1.1-1.434,2.4,2.4,0,0,0-3.283.861,2.313,2.313,0,0,0-.242,1.849Z"/><path class="b" d="M184.488,289.114c.178.075.336.17.5.261.36.191-.2-.234.061.048.139.149.285.288.418.443-.3-.354-.007.01.053.105.114.181.208.37.308.559.211.4-.069-.283.042.112.057.2.128.4.174.606.054.239.044.407.028.072.009.194.009.389.017.584.017.428.114-.352,0,.016-.175.571.211-.239-.042.184-.095.159-.181.319-.284.473.216-.321-.215.225-.279.287s-.429.366-.159.16a6.793,6.793,0,0,1-1.214.709q-.192.087.043-.012c-.118.047-.236.092-.356.134-.207.075-.417.141-.629.2-.233.067-.469.128-.706.181-.146.033-.292.062-.44.087.126-.011.119-.01-.022,0a6.971,6.971,0,0,1-.778.022c-.262-.021-.3-.023-.1,0-.095-.018-.188-.039-.281-.065s-.663-.244-.331-.092a5.127,5.127,0,0,1-.59-.325c-.082-.051-.163-.1-.241-.16.144.121.125.107-.056-.044s-.338-.3-.5-.466a4.629,4.629,0,0,1-.725-.917,22.379,22.379,0,0,1-1.5-2.878,2.009,2.009,0,0,0-2.737-.717,2.057,2.057,0,0,0-.717,2.736,13.882,13.882,0,0,0,3.421,5.133,7.8,7.8,0,0,0,2.815,1.563,7.691,7.691,0,0,0,3.623.027,9.72,9.72,0,0,0,5.2-2.646,5.649,5.649,0,0,0,1.4-5.311,6.542,6.542,0,0,0-3.4-4.525,2.059,2.059,0,0,0-2.737.717,2.022,2.022,0,0,0,.718,2.737Z"/><path class="b" d="M265.2,115.285a25.662,25.662,0,0,1-1.219,6.465c-.238.794-.5,1.581-.766,2.366-.092.271-.183.544-.278.814-.063.181-.36.838-.05.145a49.76,49.76,0,0,1-3.317,6.069,64.376,64.376,0,0,1-13.548,15.765,28.61,28.61,0,0,1-10.072,5.524c-2.965.847-1.7,5.48,1.276,4.628,7.662-2.188,14.042-7.7,19.168-13.613a66.167,66.167,0,0,0,10.487-15.611A34.025,34.025,0,0,0,270,115.285c.1-3.09-4.7-3.086-4.8,0Z"/><path class="b" d="M163.012,115.352c2.86,15.318,11.035,30.027,24.738,38.146a33.311,33.311,0,0,0,11.906,4.358,2.477,2.477,0,0,0,2.953-1.676,2.418,2.418,0,0,0-1.677-2.952c-14.621-2.222-25.812-15.469-30.546-28.775a68.323,68.323,0,0,1-2.745-10.377,2.423,2.423,0,0,0-2.953-1.676,2.452,2.452,0,0,0-1.676,2.952Z"/><path class="b" d="M272.44,89.354a5.483,5.483,0,0,1,7.6.636c1.081,1.368,1.183,3.325,1.255,4.992a28.414,28.414,0,0,1-.3,5.777,29.311,29.311,0,0,1-4,10.866c-1.537,2.445-4.083,5.752-7.328,4.86-2.983-.821-4.255,3.808-1.276,4.628,8.347,2.3,13.82-7.566,16-14.107a33.679,33.679,0,0,0,1.69-12.245c-.2-4.015-1.27-7.835-4.926-10.017a10.439,10.439,0,0,0-12.114,1.216,2.421,2.421,0,0,0,0,3.394,2.448,2.448,0,0,0,3.394,0Z"/><path class="b" d="M164.756,85.96a10.449,10.449,0,0,0-11.1-1.724c-3.837,1.7-5.448,5.237-5.842,9.218-.8,8.1,1.63,17.156,6.922,23.417,2.834,3.352,6.921,6.044,11.452,4.99,3.008-.7,1.735-5.329-1.276-4.629-3.153.734-6.22-2.765-7.77-5.088a28.83,28.83,0,0,1-4.258-10.946,28.319,28.319,0,0,1-.392-5.772c.047-1.678.087-3.7,1.068-5.138a5.439,5.439,0,0,1,7.805-.934,2.462,2.462,0,0,0,3.394,0,2.421,2.421,0,0,0,0-3.394Z"/><path class="b" d="M250.91,165.192a203.343,203.343,0,0,1-4.413,21.482c-1.474,5.685-3.377,11.188-5.37,16.7-4.434,12.276-8.775,24.629-13.876,36.648-6.4,15.079-14.449,29.25-22.515,43.477a110.537,110.537,0,0,0-5.222,10.258,52.766,52.766,0,0,0-3.257,8.62c-1.18,4.919-1.349,10.135-1.5,15.17-.363,12.03.189,24.063.48,36.088q.038,1.543.061,3.087c.042,3.086,4.842,3.1,4.8,0-.159-11.477-.757-22.941-.635-34.423.032-2.976.105-5.954.269-8.926.073-1.321.165-2.641.286-3.959.054-.583.113-1.166.181-1.748.036-.315.074-.63.117-.945-.061.445.058-.379.074-.485.892-5.755,3.595-11.295,6.3-16.394,3.771-7.115,7.987-14,11.857-21.063,3.843-7.014,7.459-14.148,10.724-21.451,5.694-12.737,10.415-25.9,15.161-39.009,1.784-4.928,3.677-9.832,5.169-14.858a201.868,201.868,0,0,0,5.182-22.32q.412-2.334.759-4.678a2.479,2.479,0,0,0-1.676-2.952,2.419,2.419,0,0,0-2.953,1.676Z"/><path class="b" d="M180.426,165.335a193.844,193.844,0,0,0,8.753,43.6,384.337,384.337,0,0,0,15.346,39.1c3.087,6.965,6.251,13.9,9.321,20.869a2.417,2.417,0,0,0,3.284.861,2.462,2.462,0,0,0,.861-3.284c-11.008-25-22.971-49.708-29.01-76.51a173.631,173.631,0,0,1-3.755-24.633,2.46,2.46,0,0,0-2.4-2.4,2.418,2.418,0,0,0-2.4,2.4Z"/><path class="b" d="M237.551,194.639a109.718,109.718,0,0,0,12.858-18.7q1.314-2.456,2.512-4.971a17.533,17.533,0,0,0,1.248-2.718c.327-1.191-.451-2.264-.984-3.268a31.482,31.482,0,0,0-6.329-8.479,2.446,2.446,0,0,0-3.769.486c-4.025,5.337-10.918,9.6-17.06,12.667-1.995,1-4.088,1.762-6.09,2.731-2.092,1.012-3.315,2.981-1.836,5.135,1.56,2.271,3.865,4.1,5.723,6.121,3.4,3.7,7.087,7.154,10.333,11a2.42,2.42,0,0,0,3.394,0,2.451,2.451,0,0,0,0-3.4c-3.051-3.615-6.506-6.865-9.719-10.332-1.382-1.491-2.766-2.972-4.209-4.4-.389-.386-.773-.778-1.162-1.164-.156-.153-.5-.659-.009.044-.059-.085-.38-.634-.343-.472v1.276l.071-.276-.618,1.059c-.244.286.251-.17.433-.267s.373-.192.562-.277c.808-.365,1.642-.677,2.455-1.031q2.142-.933,4.222-2a69.786,69.786,0,0,0,7.382-4.372,44,44,0,0,0,10.616-9.62l-3.77.485a31.163,31.163,0,0,1,6.32,8.926V166.4a109.886,109.886,0,0,1-15.625,24.847,2.467,2.467,0,0,0,0,3.4A2.421,2.421,0,0,0,237.551,194.639Z"/><path class="b" d="M200.936,191.244A109.918,109.918,0,0,1,185.312,166.4v2.422a31.173,31.173,0,0,1,6.319-8.926l-3.769-.485a43.986,43.986,0,0,0,10.616,9.62,69.856,69.856,0,0,0,7.382,4.372q1.977,1.017,4.014,1.911c.813.357,1.639.681,2.452,1.035.263.115.517.227.773.363.162.086.721.606.432.267l-.617-1.059.07.276v-1.276c.037-.162-.284.387-.343.472.5-.7.148-.2-.008-.044-.39.386-.773.778-1.162,1.164-1.444,1.431-2.828,2.912-4.209,4.4-3.214,3.467-6.668,6.717-9.72,10.332a2.466,2.466,0,0,0,0,3.4,2.421,2.421,0,0,0,3.394,0c2.855-3.383,6.066-6.444,9.1-9.665,1.405-1.494,2.778-3.016,4.227-4.468.7-.7,1.459-1.373,2.1-2.136,1.372-1.643,1.985-3.83-.03-5.3-1.651-1.2-3.817-1.782-5.661-2.647a69.695,69.695,0,0,1-10.889-6.325,37.5,37.5,0,0,1-7.769-7.115,2.446,2.446,0,0,0-3.769-.486,31.545,31.545,0,0,0-6.329,8.479c-.486.917-1.172,1.87-1.026,2.949a10.63,10.63,0,0,0,1.2,2.846q1.245,2.609,2.6,5.162a109.718,109.718,0,0,0,12.858,18.7,2.42,2.42,0,0,0,3.394,0A2.452,2.452,0,0,0,200.936,191.244Z"/><path class="b" d="M250.444,174.053c.378.4.1.055.317.37.182.262.353.532.519.805.444.733.84,1.5,1.214,2.266a35.726,35.726,0,0,1,1.774,4.3,106.119,106.119,0,0,1,4.514,35.219c-.262,5.045-.859,10.066-1.607,15.06a2.48,2.48,0,0,0,1.676,2.953,2.419,2.419,0,0,0,2.953-1.677c1.334-8.914,2.285-17.916,1.776-26.938a107.262,107.262,0,0,0-4.517-25.381,42.527,42.527,0,0,0-2.275-5.646,17.885,17.885,0,0,0-2.95-4.722c-2.133-2.243-5.523,1.155-3.394,3.394Z"/><path class="a" d="M79.491,192.843c-2.931-7.054-5.235-11.376-9.023-18.683-.239-.462-1.921-2.807-3.517-3.268a4.1,4.1,0,0,0-4.091,1.052,5.312,5.312,0,0,0-1.668,3.8A50.016,50.016,0,0,0,63.427,190.4c-8.493-1.139-25.5-9.213-34.573-14.008-2.179-1.151-4.347-2.47-6.795-2.816-2.525-.369-6.993,1.377-7.876,3.8-3.445-1.666-5.323-1.633-7.469-.817-2.548.972-3.3,1.988-3.8,3.43a6.185,6.185,0,0,0,.228,4.962,1.752,1.752,0,0,1,.223.693,1.44,1.44,0,0,1-.246.693,7.723,7.723,0,0,0,1.8,8.964,4.264,4.264,0,0,0,.453,5c6.568,7.457,30.031,21.148,43.439,26.317a5.971,5.971,0,0,1,2.056,1.095A5.884,5.884,0,0,1,52.2,230.1c.836,2.286,1.461,3.9,2.147,5.963,6.088-1.69,20.65-5.81,28.808-8.857a48.608,48.608,0,0,1-1.615-7.144l-.155-1.822c1.446-7.921,1.984-15.789-1.036-23.3C80.055,194.213,79.77,193.516,79.491,192.843Z"/><path class="b" d="M61.409,187.573c-6.776-1.639-13.277-4.526-19.583-7.445q-4.861-2.25-9.629-4.7c-3.355-1.726-6.885-4.227-10.785-4.3-3.779-.073-8.062,2.04-9.543,5.611L15.4,175.3a13.786,13.786,0,0,0-6.175-1.689,11.276,11.276,0,0,0-5.457,1.7A7.367,7.367,0,0,0,.6,179.348a8.686,8.686,0,0,0-.46,3.556,29.166,29.166,0,0,0,.911,3.375V185c-.176.824-.679,1.581-.846,2.435a10.085,10.085,0,0,0-.146,3.114,10.647,10.647,0,0,0,2.683,5.974c2.053,2.316,5.438-1.089,3.394-3.394A5.472,5.472,0,0,1,4.9,188.4c.26-1.154,1.06-2.1.779-3.4-.26-1.21-.952-2.126-.723-3.427a6.761,6.761,0,0,1,.2-.737c.008-.028.264-.664.106-.329a3.629,3.629,0,0,1,.387-.625,5.287,5.287,0,0,1,2.114-1.163c1.775-.591,3.371-.141,5.2.723a2.455,2.455,0,0,0,3.526-1.434c-.086.208.151-.147.162-.159a4.782,4.782,0,0,1,.524-.5,6.864,6.864,0,0,1,1.566-.867,5.616,5.616,0,0,1,3.733-.389c3.124.8,6.02,2.835,8.888,4.284,6.166,3.116,12.452,6.032,18.884,8.557a76.023,76.023,0,0,0,9.878,3.26c3,.726,4.282-3.9,1.276-4.628Z"/><path class="b" d="M6.836,196.847c.022-.163.106-.334-.046-.12-.1.138-.228-.081.2-.1a6.752,6.752,0,0,1,.74-.124c.97.027,2.081.856,2.933,1.282,2.466,1.233,4.917,2.5,7.386,3.725a90.769,90.769,0,0,0,14.8,6.2c2.971.868,4.24-3.763,1.276-4.628-5.877-1.717-11.363-4.548-16.8-7.306q-2.02-1.024-4.044-2.045a18.414,18.414,0,0,0-4.233-1.869c-2.613-.542-6.416.649-6.828,3.71a2.483,2.483,0,0,0,1.676,2.952,2.416,2.416,0,0,0,2.952-1.676Z"/><path class="b" d="M5.549,187.027a2.378,2.378,0,0,1,2.171-.175c1.24.518,2.454,1.119,3.667,1.7,2.9,1.391,5.806,2.76,8.753,4.052,5.271,2.31,10.475,4.78,15.8,6.955a2.416,2.416,0,0,0,2.953-1.676,2.462,2.462,0,0,0-1.677-2.953c-5.3-2.164-10.91-4.83-16.333-7.2-3.316-1.447-6.526-3.119-9.821-4.612a10.1,10.1,0,0,0-4.331-1.239,6.11,6.11,0,0,0-4.579,1.752,2.464,2.464,0,0,0,0,3.395,2.421,2.421,0,0,0,3.394,0Z"/><path class="b" d="M2.208,195.571c-1.275,4.692,2.54,7.8,5.792,10.414a118.522,118.522,0,0,0,10.662,7.535,185.182,185.182,0,0,0,25.28,13.661c1.153.5,2.313.994,3.483,1.459,1.078.429,1.835.6,2.323,1.724a82.431,82.431,0,0,1,3.1,8.932c.891,2.95,5.525,1.693,4.629-1.276-.793-2.625-1.727-5.2-2.674-7.767a13.63,13.63,0,0,0-1.595-3.465A8.112,8.112,0,0,0,49.2,224.21a123.855,123.855,0,0,1-11.394-5.261,178.218,178.218,0,0,1-23.977-14.5,56.329,56.329,0,0,1-4.539-3.64c-1.144-1.028-2.924-2.247-2.457-3.965.811-2.985-3.818-4.259-4.628-1.276Z"/><path class="b" d="M83.186,221.541c1.212-6.007,2.2-12.207,1.566-18.345-.622-6.023-3.016-11.455-5.519-16.906-1.03-2.243-2.121-4.458-3.24-6.658-1.161-2.282-2.213-4.741-3.584-6.9-1.164-1.836-2.985-3.766-5.183-4.24a6.869,6.869,0,0,0-7.3,3.326c-1.7,2.65-1.148,6.146-.845,9.114a50.761,50.761,0,0,0,2.1,10.37c.939,2.93,5.575,1.678,4.628-1.276a45.261,45.261,0,0,1-1.779-7.762c-.144-1.079-.242-2.166-.315-3.252a17.421,17.421,0,0,1-.12-3.669c.22-1.385,1.692-2.741,2.935-2.007,1.458.862,1.949,2.213,2.721,3.7,2.063,3.977,4.131,7.953,5.991,12.031,2,4.378,4.058,8.857,4.652,13.679.723,5.862-.187,11.78-1.345,17.521a2.46,2.46,0,0,0,1.676,2.952,2.425,2.425,0,0,0,2.953-1.676Z"/><path class="b" d="M12.972,179.445c4.325,2.024,8.473,4.426,12.782,6.49,5.04,2.413,9.925,5.138,14.882,7.713,2.738,1.422,5.168-2.719,2.423-4.145-4.957-2.575-9.843-5.3-14.882-7.713-4.31-2.064-8.457-4.465-12.782-6.489a2.469,2.469,0,0,0-3.284.861,2.42,2.42,0,0,0,.861,3.283Z"/><path class="b" d="M43.65,190.91q-7.181,5.975-13.756,12.626a2.4,2.4,0,0,0,3.394,3.394q6.567-6.644,13.757-12.626a2.409,2.409,0,0,0,0-3.394,2.466,2.466,0,0,0-3.4,0Z"/><path class="b" d="M34.908,208.19c2.565.053,5.127.171,7.684.368a35.825,35.825,0,0,1,6.7.89,12.454,12.454,0,0,1,7.856,6.664,2.423,2.423,0,0,0,3.284.861,2.45,2.45,0,0,0,.861-3.283,17.215,17.215,0,0,0-10-8.653,33.683,33.683,0,0,0-7.747-1.2c-2.876-.242-5.758-.385-8.643-.445-3.09-.064-3.089,4.736,0,4.8Z"/><path class="b" d="M79.139,220.058c.339,3.741,1.6,7.381,2.589,10.985a2.4,2.4,0,1,0,4.629-1.276c-.475-1.734-.979-3.46-1.435-5.2-.238-.908-.466-1.818-.665-2.735-.088-.405-.17-.811-.241-1.219a2.117,2.117,0,0,1-.091-.576c0,.009.07.646.044.318-.008-.1-.021-.2-.03-.3a2.4,2.4,0,1,0-4.8,0Z"/><path class="a" d="M52.949,236.447c5.288-1.46,24.142-6.714,32.247-10.041.779,1.953,2.359,6.727,3.353,9.3l.222.555c-10.255,3.987-24.081,8.609-34.153,10.384l-.061-.2c-.985-3.143-2.407-8.754-2.738-9.688Z"/><path class="b" d="M56.871,245.809c-.993-3.2-1.66-6.517-2.738-9.688l-1.676,2.952c8.7-2.4,17.386-4.852,25.952-7.681,2.5-.825,4.989-1.678,7.425-2.672l-2.953-1.676c1.209,3.065,2.174,6.223,3.354,9.3a2.47,2.47,0,0,0,2.953,1.677,2.419,2.419,0,0,0,1.676-2.953c-1.18-3.076-2.146-6.234-3.354-9.3-.431-1.094-1.65-2.208-2.952-1.677-9.406,3.838-19.389,6.447-29.158,9.183q-2.108.591-4.219,1.171A2.424,2.424,0,0,0,49.5,237.4c1.078,3.171,1.745,6.488,2.738,9.688.913,2.941,5.548,1.686,4.629-1.276Z"/><path class="b" d="M109.259,282.067c-5.332-15.806-10.051-31.8-14.789-47.789a2.417,2.417,0,0,0-2.953-1.676q-10.059,4.078-20.432,7.335c-6.457,2.022-13.318,4.039-19.923,4.819a2.448,2.448,0,0,0-2.314,3.038c2.39,11.575,4.646,23.18,7.427,34.669,2.553,10.544,5.267,21.332,9.825,31.219,3.767,8.17,9.493,15.831,17.819,19.739a36.052,36.052,0,0,0,31.429-.337c4.831-2.418,9.02-6.027,12.937-9.7,3.869-3.629,7.49-7.5,11.174-11.319,2.147-2.223-1.243-5.622-3.394-3.394-6.185,6.4-12.24,13.42-19.749,18.323a31.309,31.309,0,0,1-28.355,2.962c-7.9-2.949-13.289-9.71-16.932-17.056A87.115,87.115,0,0,1,66.2,300.4c-1.743-5.5-3.274-11.074-4.672-16.675-3.071-12.314-5.484-24.778-8.049-37.2l-2.315,3.038a116.452,116.452,0,0,0,20.816-4.871q10.556-3.286,20.815-7.455l-2.952-1.676c4.738,15.991,9.457,31.983,14.79,47.789.982,2.912,5.62,1.663,4.628-1.276Z"/><path class="b" d="M210.055,90.045c0,.129.022.257.016.386l4.714-.638a7.465,7.465,0,0,0-3.117-5.136,17.636,17.636,0,0,0-5.555-2.3,41.905,41.905,0,0,0-12.887-1.087,39.857,39.857,0,0,0-12.814,2.441,8.384,8.384,0,0,0-4.6,4.006,13.543,13.543,0,0,0-1.021,5.976,20.38,20.38,0,0,0,2.94,10.784c2.04,3.064,5.484,4.716,8.893,5.815a26.41,26.41,0,0,0,10.007,1.037,30.682,30.682,0,0,0,10.617-2.288c7.46-3.313,8.6-12.489,7.52-19.639a2.417,2.417,0,0,0-2.953-1.676,2.461,2.461,0,0,0-1.676,2.952c.654,4.326.343,10.349-3.5,13.219-1.975,1.473-4.884,2.113-7.288,2.428a31.674,31.674,0,0,1-7.86.2,18.456,18.456,0,0,1-8.029-2.959c-2.193-1.468-3.055-4.181-3.543-6.659a18.486,18.486,0,0,1-.319-4.074c.036-1.369.1-2.985,1.244-3.923a9.52,9.52,0,0,1,3.685-1.485,40.163,40.163,0,0,1,5.709-1.107,42.973,42.973,0,0,1,12,.108,23.234,23.234,0,0,1,5.52,1.523,4.964,4.964,0,0,1,1.7,1.047,4.138,4.138,0,0,1,.7,2.067c.5,2.769,4.6,1.948,4.714-.638.006-.129-.02-.257-.016-.386C214.968,86.956,210.168,86.96,210.055,90.045Z"/><path class="b" d="M222,90.045c0,.129-.022.257-.016.386a2.409,2.409,0,0,0,2.081,2.357,2.376,2.376,0,0,0,2.633-1.719,3.278,3.278,0,0,1,2.022-2.929,19.448,19.448,0,0,1,4.588-1.457,39.5,39.5,0,0,1,10.552-.6,36.639,36.639,0,0,1,10.607,1.982,3.663,3.663,0,0,1,2.537,2.5,13.548,13.548,0,0,1,.2,4.379c-.191,2.539-.865,5.619-2.589,7.6-1.8,2.063-4.688,2.922-7.182,3.56a30.423,30.423,0,0,1-15.546-1.269c-5.3-2.234-5.923-9.2-5.174-14.159a2.478,2.478,0,0,0-1.676-2.952,2.419,2.419,0,0,0-2.953,1.676c-.989,6.544-.236,14.378,5.583,18.546,2.749,1.969,6.531,2.806,9.839,3.177a33.246,33.246,0,0,0,9.974-.114,21.256,21.256,0,0,0,10.035-4.586c2.659-2.379,3.82-6.321,4.292-9.736.523-3.782.61-8.58-2.543-11.292a13.851,13.851,0,0,0-5.66-2.6,48.688,48.688,0,0,0-6.756-1.251,45.741,45.741,0,0,0-14.6.459,21.748,21.748,0,0,0-6.437,2.249,7.52,7.52,0,0,0-3.742,5.534l4.714.638c-.006-.129.02-.257.016-.386C226.685,86.966,221.885,86.951,222,90.045Z"/><path class="b" d="M214.278,93.894c.435-.108.872-.205,1.314-.285.188-.034.378-.063.567-.094.638-.1-.522.047.122-.013a22.859,22.859,0,0,1,2.482-.115q.574.011,1.146.054.335.025.667.063c.1.01.191.021.286.033q-.483-.066-.069-.006a24.436,24.436,0,0,1,2.435.541,2.4,2.4,0,1,0,1.276-4.629,22.373,22.373,0,0,0-11.5-.178,2.423,2.423,0,0,0-1.676,2.952,2.449,2.449,0,0,0,2.952,1.677Z"/><path class="b" d="M177.787,88.187a20.263,20.263,0,0,0-5.024-.5,2.513,2.513,0,0,0-1.7.7,2.4,2.4,0,0,0,1.7,4.1,17.669,17.669,0,0,1,2.881.146l-.638-.086q.759.1,1.5.271a2.536,2.536,0,0,0,1.85-.242,2.4,2.4,0,0,0,.861-3.284,2.42,2.42,0,0,0-1.434-1.1Z"/><path class="b" d="M260.4,92.816q.747-.168,1.5-.271l-.638.086a17.662,17.662,0,0,1,2.88-.146,2.4,2.4,0,0,0,2.4-2.4,2.424,2.424,0,0,0-.7-1.7,2.566,2.566,0,0,0-1.7-.7,20.26,20.26,0,0,0-5.023.5,2.4,2.4,0,0,0-.573,4.387,2.6,2.6,0,0,0,1.849.242Z"/><path class="b" d="M206.626,129.644c3.015,2.955,7.8,3.811,11.844,3.81s8.83-.847,11.85-3.8c2.213-2.164-1.182-5.557-3.394-3.395-.1.1-.6.522-.3.286.28-.221-.369.245-.517.336-.263.162-.534.311-.81.449-.186.093-.374.182-.564.265.325-.142-.008,0-.161.054a17.73,17.73,0,0,1-6.1,1,17.239,17.239,0,0,1-5.993-.97c-.028-.01-.722-.3-.27-.1q-.238-.1-.472-.221c-.307-.151-.608-.314-.9-.494-.223-.138-.433-.292-.65-.44.614.418-.016-.036-.166-.183-2.208-2.164-5.605,1.228-3.394,3.394Z"/><path class="b" d="M217.249,107.33a48.684,48.684,0,0,1,1.14,5.227l-.086-.638a3.171,3.171,0,0,1,.019.722l.086-.638a1.724,1.724,0,0,1-.08.324l.242-.573a1.233,1.233,0,0,1-.114.208l.375-.485a1.132,1.132,0,0,1-.171.168l.486-.375a3.556,3.556,0,0,1-.414.219l.573-.242a3.035,3.035,0,0,1-.7.2l.638-.086a2.814,2.814,0,0,1-.655,0l.638.085c-.247-.034-.489-.094-.736-.128a2.654,2.654,0,0,0-1.849.242,2.4,2.4,0,0,0-.861,3.284,2.3,2.3,0,0,0,1.434,1.1c.537.072,1.058.21,1.6.234a5.06,5.06,0,0,0,2.333-.55,3.305,3.305,0,0,0,1.852-2.187,5.6,5.6,0,0,0-.024-2.387c-.284-1.684-.672-3.353-1.1-5a2.4,2.4,0,0,0-4.628,1.276Z"/><path class="b" d="M190.546,92.84c-.82,2.661-.29,8.785,4.753,9.309,6.666-.036,7.024-7.44,4.782-10.922C198.246,88.376,192.844,87.188,190.546,92.84Z"/><path class="b" d="M245.483,92.868c.818,2.662.281,8.786-4.762,9.3-6.666-.043-7.017-7.447-4.771-10.927C237.788,88.4,243.191,87.213,245.483,92.868Z"/></svg>